<svg xmlns="http://www.w3.org/2000/svg" version="1.1" xmlns:xlink="http://www.w3.org/1999/xlink" xmlns:svgjs="http://svgjs.com/svgjs" width="1000" height="1000"><rect width="1000" height="1000" rx="500" ry="500" fill="#202125"></rect><g transform="matrix(1,0,0,1,0,0)"><svg xmlns="http://www.w3.org/2000/svg" version="1.1" xmlns:xlink="http://www.w3.org/1999/xlink" xmlns:svgjs="http://svgjs.com/svgjs" width="100%" height="100%"><svg width="100%" height="100%" version="1.1" style="shape-rendering:geometricPrecision; text-rendering:geometricPrecision; image-rendering:optimizeQuality; fill-rule:evenodd; clip-rule:evenodd" viewBox="12807.175 8404.709 4179.821 4190.583" xmlns="http://www.w3.org/2000/svg">
  <defs>
    <style type="text/css">

    .fil0 {fill:#Fff;fill-rule:nonzero}

  </style>
  </defs>
  <g id="Layer_x0020_1">
    <path class="fil0" d="M14849.47 9946.83c130.88,0 249.4,53.07 335.17,138.84 85.77,85.77 138.84,204.29 138.84,335.17 0,128.67 -51.29,245.39 -134.52,330.8l-41.97 -337.84c-1.84,-79.39 -34.76,-151.1 -87.07,-203.41 -53.85,-53.85 -128.26,-87.16 -210.45,-87.16 -82.19,0 -156.6,33.31 -210.45,87.16 -49.5,49.5 -81.64,116.38 -86.51,190.7l-43.43 349.61c-82.7,-85.32 -133.62,-201.66 -133.62,-329.86 0,-130.88 53.07,-249.4 138.84,-335.17 85.77,-85.77 204.29,-138.84 335.17,-138.84zm207.61 900.25c-62.7,30.6 -133.16,47.77 -207.61,47.77 -75.5,0 -146.89,-17.66 -210.25,-49.07l-34.06 255.54 -38.36 287.83c-4.89,36.16 -9.26,60.84 -4.73,97.83 17.71,144.67 137.69,256.93 289.47,254.39 145.15,-2.42 253.96,-104.62 277.65,-239.8 8.3,-47.34 2.55,-76.97 -3.45,-123.38l-35.63 -275.56 -33.03 -255.55zm-210.13 443.66c91.1,0 164.96,73.86 164.96,164.96 0,91.1 -73.86,164.96 -164.96,164.96 -91.1,0 -164.96,-73.86 -164.96,-164.96 0,-91.1 73.86,-164.96 164.96,-164.96zm1.6 -1022.45c80.07,0 145.58,65.51 145.58,145.58l0 229.64c0,80.07 -65.51,145.58 -145.58,145.58 -80.07,0 -145.58,-65.51 -145.58,-145.58l0 -229.64c0,-80.07 65.51,-145.58 145.58,-145.58zm0.92 -658.46c223.94,0 426.7,90.78 573.47,237.54 146.76,146.77 237.54,349.53 237.54,573.47 0,223.94 -90.78,426.7 -237.54,573.46 -54.94,54.94 -117.72,102.03 -186.52,139.45l-23.89 -192.34c30.65,-21.41 59.33,-45.47 85.69,-71.83 114.83,-114.83 185.86,-273.49 185.86,-448.74 0,-175.25 -71.04,-333.92 -185.86,-448.75 -114.83,-114.82 -273.5,-185.86 -448.75,-185.86 -175.25,0 -333.91,71.03 -448.74,185.86 -114.84,114.84 -185.87,273.5 -185.87,448.75 0,175.25 71.04,333.92 185.87,448.74 26.09,26.09 54.44,49.91 84.74,71.16l-23.9 192.48c-68.42,-37.34 -130.88,-84.24 -185.56,-138.92 -146.77,-146.76 -237.55,-349.52 -237.55,-573.46 0,-223.94 90.78,-426.7 237.55,-573.47 146.76,-146.76 349.52,-237.54 573.46,-237.54zm0 -337c316.99,0 604.01,128.5 811.76,336.25 207.75,207.75 336.25,494.77 336.25,811.76 0,316.99 -128.5,604.01 -336.25,811.76 -107.95,107.95 -237.31,194.49 -381.14,252.73l-22.66 -182.43c104.38,-48.35 198.74,-114.68 279.08,-195.02 175.82,-175.82 284.57,-418.73 284.57,-687.04 0,-268.31 -108.75,-511.22 -284.57,-687.04 -175.82,-175.82 -418.73,-284.57 -687.04,-284.57 -268.31,0 -511.22,108.75 -687.04,284.57 -175.82,175.82 -284.57,418.73 -284.57,687.04 0,268.31 108.75,511.22 284.57,687.04 80.09,80.09 174.12,146.26 278.12,194.58l-22.67 182.48c-143.44,-58.24 -272.47,-144.64 -380.17,-252.34 -207.75,-207.75 -336.25,-494.77 -336.25,-811.76 0,-316.99 128.5,-604.01 336.25,-811.76 207.75,-207.75 494.77,-336.25 811.76,-336.25z"></path>
  </g>
</svg></svg></g></svg>